<svg width="1420" height="291" viewBox="0 0 1420 291" fill="currentColor" xmlns="http://www.w3.org/2000/svg">
<path d="M236.555 270.742C202.042 270.742 174.064 242.764 174.064 208.251V15C174.064 6.71571 180.779 0 189.064 0H230.655C238.94 0 245.655 6.71573 245.655 15V261.641C245.655 266.668 241.581 270.742 236.555 270.742V270.742Z" fill="currentColor"/>
<path d="M88.7412 269.196C127.401 269.196 158.741 237.856 158.741 199.196L158.741 136.487C158.741 128.203 152.025 121.487 143.741 121.487L102.032 121.487C93.7476 121.487 87.0319 128.203 87.0319 136.487L87.0319 269.196L88.7412 269.196Z" fill="currentColor"/>
<path d="M1.70934 269.063C40.3693 269.063 71.7093 237.723 71.7093 199.063L71.7093 136.354C71.7093 128.07 64.9936 121.354 56.7094 121.354L15 121.354C6.71578 121.354 4.07574e-05 128.07 4.00332e-05 136.354L2.84314e-05 269.063L1.70934 269.063Z" fill="currentColor"/>
<path d="M233.306 271.035C225.022 271.035 218.306 264.319 218.306 256.035V136.487C218.306 128.203 225.022 121.487 233.306 121.487H290.567C301.987 121.487 309.219 133.741 303.698 143.738L281.737 183.507C278.387 189.574 279.629 197.146 284.742 201.824L331.896 244.968C341.994 254.208 335.457 271.035 321.77 271.035H249.245H246.007H242.411H233.306Z" fill="currentColor"/>
<path d="M578.44 269V123H601.8V144.9H602.092C604.623 140.423 608.224 136.335 612.896 132.636C623.603 124.265 635.964 120.08 649.98 120.08C664.58 120.08 676.747 124.947 686.48 134.68C690.763 138.963 694.169 143.829 696.7 149.28H698.16C701.08 144.219 705.168 139.352 710.424 134.68C721.715 124.947 735.633 120.08 752.18 120.08C767.948 120.08 780.893 125.725 791.016 137.016C801.139 148.307 806.2 163.588 806.2 182.86V269H782.84V184.32C782.84 170.693 779.628 160.279 773.204 153.076C766.975 145.679 758.507 141.98 747.8 141.98C736.12 141.98 725.9 146.457 717.14 155.412C708.38 164.367 704 174.976 704 187.24V269H680.64V184.32C680.64 170.693 677.428 160.279 671.004 153.076C664.775 145.679 656.307 141.98 645.6 141.98C633.92 141.98 623.7 146.457 614.94 155.412C606.18 164.367 601.8 174.976 601.8 187.24V269H578.44ZM857.311 250.312C843.685 235.712 836.871 217.608 836.871 196C836.871 174.392 843.685 156.385 857.311 141.98C870.938 127.38 887.485 120.08 906.951 120.08C919.215 120.08 929.533 122.416 937.903 127.088C946.469 131.76 952.698 136.821 956.591 142.272L959.219 146.652H959.511V123H982.871V269H959.511V245.64H959.219L956.591 249.728C953.087 254.984 947.053 260.045 938.487 264.912C929.922 269.584 919.41 271.92 906.951 271.92C887.485 271.92 870.938 264.717 857.311 250.312ZM874.247 157.164C864.903 167.287 860.231 180.232 860.231 196C860.231 211.768 864.903 224.713 874.247 234.836C883.786 244.959 895.661 250.02 909.871 250.02C924.082 250.02 935.859 244.959 945.203 234.836C954.742 224.713 959.511 211.768 959.511 196C959.511 180.232 954.742 167.287 945.203 157.164C935.859 147.041 924.082 141.98 909.871 141.98C895.661 141.98 883.786 147.041 874.247 157.164ZM1023.85 269V123H1047.21V146.36H1047.51C1050.23 141.493 1053.54 137.405 1057.43 134.096C1066.97 125.725 1078.65 121.54 1092.47 121.54H1109.99V144.9H1092.47C1079.24 144.9 1068.34 149.183 1059.77 157.748C1051.4 166.119 1047.21 176.923 1047.21 190.16V269H1023.85ZM1134.78 269V64.6H1158.14V181.4H1187.34L1234.06 123H1261.8L1207.78 191.62L1266.18 269H1236.98L1187.34 203.3H1158.14V269H1134.78ZM1288.19 269V64.6H1311.55V181.4H1340.75L1387.47 123H1415.21L1361.19 191.62L1419.59 269H1390.39L1340.75 203.3H1311.55V269H1288.19Z" fill="currentColor"/>
<line x1="458" y1="100" x2="458" y2="291" stroke="currentColor" stroke-width="4"/>
</svg>
