<svg
            width="106"
            height="31"
            viewBox="0 0 106 31"
            fill="none"
            xmlns="http://www.w3.org/2000/svg"
          >
            <g clip-path="url(#clip0_43_11991)">
              <path d="M0 31V10.2304H6.45782V30.9614H0V31Z" fill="white" />
              <path
                d="M13.2213 31V10.2304H19.6792V30.9614H13.2213V31Z"
                fill="white"
              />
              <path
                d="M50.5544 31V25.4023L51.5097 20.3836L50.5544 15.3649V10.2304H56.8976V30.9614H50.5544V31Z"
                fill="white"
              />
              <path
                d="M59.6871 31V10.2304H66.1449V30.9614H59.6871V31Z"
                fill="white"
              />
              <path d="M77.3792 31V0H83.8371V31H77.3792Z" fill="white" />
              <path d="M87.1997 31V0H93.6575V31H87.1997Z" fill="white" />
              <path
                d="M80.2833 18.9166L102.637 7.72107L105.159 12.4695L82.1939 24.2441L80.2833 18.9166Z"
                fill="white"
              />
              <path
                d="M60.4513 15.4421L73.2906 10.1918L76.0418 14.7472L61.5977 20.3836L60.4513 15.4421Z"
                fill="white"
              />
              <path
                d="M0.878876 15.4421L13.7181 10.1918L16.4694 14.7472L2.02524 20.3836L0.878876 15.4421Z"
                fill="white"
              />
              <path
                d="M25.602 31V10.2304H32.0598V30.9614H25.602V31Z"
                fill="white"
              />
              <path
                d="M13.2213 15.4421L26.0606 10.1918L28.8118 14.7472L14.4059 20.3836L13.2213 15.4421Z"
                fill="white"
              />
              <path
                d="M100.154 30.9614L90.335 19.7034L91.3793 13.3983L106 30.9614H100.154Z"
                fill="white"
              />
              <path
                d="M45.3576 10.4234C39.7787 10.4234 35.2696 14.9788 35.2696 20.6152C35.2696 26.2515 39.7787 30.807 45.3576 30.807C50.9366 30.807 55.4456 26.2515 55.4456 20.6152C55.4456 14.9788 50.9366 10.4234 45.3576 10.4234ZM45.3576 24.5143C43.2177 24.5143 41.4982 22.7771 41.4982 20.6152C41.4982 18.4533 43.2177 16.7161 45.3576 16.7161C47.4975 16.7161 49.217 18.4533 49.217 20.6152C49.217 22.7771 47.4975 24.5143 45.3576 24.5143Z"
                fill="white"
              />
            </g>
            <defs>
              <clipPath id="clip0_43_11991">
                <rect width="106" height="31" fill="" />
              </clipPath>
            </defs>
          </svg>